# This file uses centimeters as units for non-parametric coordinates.

mtllib week 3 platform.mtl
g default
v -977.279175 -83.876473 977.279188
v -977.279175 83.876792 977.279161
v -977.279175 -83.876792 -977.279161
v -977.279175 83.876473 -977.279188
v 977.279175 -83.876473 977.279188
v 977.279175 83.876792 977.279161
v 977.279175 -83.876792 -977.279161
v 977.279175 83.876473 -977.279188
v -977.279175 -83.876633 0.000014
v -977.279175 83.876633 -0.000014
v 977.279175 -83.876633 0.000014
v 977.279175 83.876633 -0.000014
v 0.000000 -83.876792 -977.279161
v 0.000000 83.876473 -977.279188
v 0.000000 -83.876473 977.279188
v 0.000000 83.876792 977.279161
v 0.000000 83.876633 -0.000014
v 0.000000 -83.876633 0.000014
v -2994.426857 83.876633 -0.000014
v -2994.426857 83.876473 -977.279188
v -2994.426857 -83.876792 -977.279161
v -2994.426857 -83.876633 0.000014
v -977.279175 83.876145 -2990.525027
v -977.279175 -83.877120 -2990.525000
v 0.000000 -83.877120 -2990.525000
v 0.000000 83.876145 -2990.525027
v 2995.662697 83.876633 -0.000014
v 2995.662697 83.876792 977.279161
v 2995.662697 -83.876473 977.279188
v 2995.662697 -83.876633 0.000014
v 977.279175 83.877121 3000.233707
v 977.279175 -83.876144 3000.233734
v 0.000000 -83.876144 3000.233734
v 0.000000 83.877121 3000.233707
vt 0.538790 0.606294
vt 0.538790 0.751912
vt 0.465981 0.751912
vt 0.465981 0.606294
vt 0.545941 0.751951
vt 0.545941 0.606294
vt 0.618750 0.606294
vt 0.618750 0.751951
vt 0.998008 0.602666
vt 0.852390 0.602666
vt 0.852390 0.451925
vt 0.998008 0.451925
vt 0.245318 0.451808
vt 0.390936 0.451808
vt 0.390936 0.601821
vt 0.245318 0.601821
vt 0.625849 0.752302
vt 0.625849 0.606645
vt 0.698684 0.606645
vt 0.698684 0.752302
vt 0.002005 0.606099
vt 0.147662 0.606099
vt 0.147662 0.756112
vt 0.002005 0.756112
vt 0.858422 0.606645
vt 0.858422 0.752263
vt 0.785613 0.752263
vt 0.785613 0.606645
vt 0.846266 0.602666
vt 0.700609 0.602666
vt 0.700609 0.451925
vt 0.846266 0.451925
vt 0.548854 0.451886
vt 0.694472 0.451886
vt 0.694472 0.602185
vt 0.548854 0.602185
vt 0.306217 0.751444
vt 0.306217 0.605826
vt 0.379052 0.605826
vt 0.379052 0.751444
vt 0.542717 0.602315
vt 0.397073 0.602315
vt 0.397073 0.451938
vt 0.542717 0.451938
vt 0.458934 0.606320
vt 0.458934 0.751977
vt 0.386112 0.751977
vt 0.386112 0.606320
vt 0.093576 0.451808
vt 0.239233 0.451808
vt 0.239233 0.602107
vt 0.093576 0.602107
vt 0.705731 0.752276
vt 0.705731 0.606658
vt 0.778553 0.606658
vt 0.778553 0.752276
vt 0.299833 0.756489
vt 0.154215 0.756489
vt 0.154215 0.606086
vt 0.299833 0.606086
vt 0.938370 0.606658
vt 0.938370 0.752315
vt 0.865534 0.752315
vt 0.865534 0.606658
vt 0.224788 0.224722
vt 0.224788 0.151913
vt 0.297597 0.151913
vt 0.297597 0.224722
vt 0.151979 0.224722
vt 0.151979 0.151913
vt 0.224788 0.001510
vt 0.297597 0.001510
vt 0.448312 0.151913
vt 0.448312 0.224722
vt 0.224788 0.297531
vt 0.297597 0.297531
vt 0.151979 0.297531
vt 0.001992 0.297531
vt 0.001992 0.224722
vt 0.224788 0.447830
vt 0.151979 0.447830
vt 0.679403 0.225086
vt 0.606581 0.225086
vt 0.606581 0.152264
vt 0.679403 0.152264
vt 0.679403 0.297921
vt 0.606581 0.297921
vt 0.752238 0.225086
vt 0.752238 0.152264
vt 0.679403 0.447934
vt 0.606581 0.447934
vt 0.456269 0.297921
vt 0.456269 0.225086
vt 0.752238 0.297921
vt 0.679403 0.001523
vt 0.752238 0.001523
vt 0.902615 0.152264
vt 0.902615 0.225086
vn 0.000000 -0.000000 -1.000000
vn 0.000000 -0.000000 -1.000000
vn 0.000000 -0.000000 -1.000000
vn 0.000000 -0.000000 -1.000000
vn 0.000000 -0.000000 -1.000000
vn 0.000000 -0.000000 -1.000000
vn 0.000000 -0.000000 -1.000000
vn 0.000000 -0.000000 -1.000000
vn 0.000000 0.000000 1.000000
vn 0.000000 0.000000 1.000000
vn 0.000000 0.000000 1.000000
vn 0.000000 0.000000 1.000000
vn 0.000000 0.000000 1.000000
vn 0.000000 0.000000 1.000000
vn 0.000000 0.000000 1.000000
vn 0.000000 0.000000 1.000000
vn 0.000000 -1.000000 0.000000
vn 0.000000 -1.000000 0.000000
vn 0.000000 -1.000000 0.000000
vn 0.000000 -1.000000 0.000000
vn 0.000000 1.000000 -0.000000
vn 0.000000 1.000000 -0.000000
vn 0.000000 1.000000 -0.000000
vn 0.000000 1.000000 -0.000000
vn 0.000000 1.000000 -0.000000
vn 0.000000 1.000000 -0.000000
vn 0.000000 1.000000 -0.000000
vn 0.000000 1.000000 -0.000000
vn 0.000000 -1.000000 0.000000
vn 0.000000 -1.000000 0.000000
vn 0.000000 -1.000000 0.000000
vn 0.000000 -1.000000 0.000000
vn 1.000000 0.000000 0.000000
vn 1.000000 0.000000 0.000000
vn 1.000000 0.000000 0.000000
vn 1.000000 0.000000 0.000000
vn -1.000000 0.000000 -0.000000
vn -1.000000 0.000000 -0.000000
vn -1.000000 0.000000 -0.000000
vn -1.000000 0.000000 -0.000000
vn 0.000000 -1.000000 0.000000
vn 0.000000 -1.000000 0.000000
vn 0.000000 -1.000000 0.000000
vn 0.000000 -1.000000 0.000000
vn 0.000000 1.000000 -0.000000
vn 0.000000 1.000000 -0.000000
vn 0.000000 1.000000 -0.000000
vn 0.000000 1.000000 -0.000000
vn 0.000000 1.000000 -0.000000
vn 0.000000 1.000000 -0.000000
vn 0.000000 1.000000 -0.000000
vn 0.000000 1.000000 -0.000000
vn 0.000000 -1.000000 0.000000
vn 0.000000 -1.000000 0.000000
vn 0.000000 -1.000000 0.000000
vn 0.000000 -1.000000 0.000000
vn 1.000000 0.000000 0.000000
vn 1.000000 0.000000 0.000000
vn 1.000000 0.000000 0.000000
vn 1.000000 0.000000 0.000000
vn 1.000000 0.000000 0.000000
vn 1.000000 0.000000 0.000000
vn 1.000000 0.000000 0.000000
vn 1.000000 0.000000 0.000000
vn -1.000000 0.000000 -0.000000
vn -1.000000 0.000000 -0.000000
vn -1.000000 0.000000 -0.000000
vn -1.000000 0.000000 -0.000000
vn 0.000000 -1.000000 0.000000
vn 0.000000 -1.000000 0.000000
vn 0.000000 -1.000000 0.000000
vn 0.000000 -1.000000 0.000000
vn 0.000000 0.000000 1.000000
vn 0.000000 0.000000 1.000000
vn 0.000000 0.000000 1.000000
vn 0.000000 0.000000 1.000000
vn 0.000000 1.000000 -0.000000
vn 0.000000 1.000000 -0.000000
vn 0.000000 1.000000 -0.000000
vn 0.000000 1.000000 -0.000000
vn 0.000000 -0.000000 -1.000000
vn 0.000000 -0.000000 -1.000000
vn 0.000000 -0.000000 -1.000000
vn 0.000000 -0.000000 -1.000000
vn -1.000000 0.000000 -0.000000
vn -1.000000 0.000000 -0.000000
vn -1.000000 0.000000 -0.000000
vn -1.000000 0.000000 -0.000000
vn 0.000000 1.000000 -0.000000
vn 0.000000 1.000000 -0.000000
vn 0.000000 1.000000 -0.000000
vn 0.000000 1.000000 -0.000000
vn 0.000000 -1.000000 0.000000
vn 0.000000 -1.000000 0.000000
vn 0.000000 -1.000000 0.000000
vn 0.000000 -1.000000 0.000000
vn 1.000000 0.000000 0.000000
vn 1.000000 0.000000 0.000000
vn 1.000000 0.000000 0.000000
vn 1.000000 0.000000 0.000000
vn 0.000000 -0.000000 -1.000000
vn 0.000000 -0.000000 -1.000000
vn 0.000000 -0.000000 -1.000000
vn 0.000000 -0.000000 -1.000000
vn 0.000000 -1.000000 0.000000
vn 0.000000 -1.000000 0.000000
vn 0.000000 -1.000000 0.000000
vn 0.000000 -1.000000 0.000000
vn 0.000000 1.000000 -0.000000
vn 0.000000 1.000000 -0.000000
vn 0.000000 1.000000 -0.000000
vn 0.000000 1.000000 -0.000000
vn 0.000000 0.000000 1.000000
vn 0.000000 0.000000 1.000000
vn 0.000000 0.000000 1.000000
vn 0.000000 0.000000 1.000000
vn 0.000000 1.000000 -0.000000
vn 0.000000 1.000000 -0.000000
vn 0.000000 1.000000 -0.000000
vn 0.000000 1.000000 -0.000000
vn 0.000000 -1.000000 0.000000
vn 0.000000 -1.000000 0.000000
vn 0.000000 -1.000000 0.000000
vn 0.000000 -1.000000 0.000000
vn -1.000000 0.000000 -0.000000
vn -1.000000 0.000000 -0.000000
vn -1.000000 0.000000 -0.000000
vn -1.000000 0.000000 -0.000000
s off
g Cube platform
usemtl initialShadingGroup
f 4/33/1 3/34/2 21/35/3 20/36/4
f 13/37/5 14/38/6 8/39/7 7/40/8
f 6/41/9 5/42/10 29/43/11 28/44/12
f 15/45/13 16/46/14 2/47/15 1/48/16
f 18/65/17 11/66/18 5/67/19 15/68/20
f 17/82/21 10/83/22 2/84/23 16/85/24
f 14/86/25 4/87/26 10/83/27 17/82/28
f 13/69/29 7/70/30 11/66/31 18/65/32
f 7/1/33 8/2/34 12/3/35 11/4/36
f 1/5/37 2/6/38 10/7/39 9/8/40
f 3/77/41 13/69/42 18/65/43 9/75/44
f 8/94/45 14/86/46 17/82/47 12/88/48
f 12/88/49 17/82/50 16/85/51 6/89/52
f 9/75/53 18/65/54 15/68/55 1/76/56
f 5/9/57 6/10/58 31/11/59 32/12/60
f 14/13/61 13/14/62 25/15/63 26/16/64
f 22/17/65 19/18/66 20/19/67 21/20/68
f 3/77/69 9/75/70 22/80/71 21/81/72
f 9/49/73 10/50/74 19/51/75 22/52/76
f 10/83/77 4/87/78 20/92/79 19/93/80
f 24/53/81 23/54/82 26/55/83 25/56/84
f 3/21/85 4/22/86 23/23/87 24/24/88
f 4/87/89 14/86/90 26/90/91 23/91/92
f 13/69/93 3/77/94 24/78/95 25/79/96
f 30/25/97 27/26/98 28/27/99 29/28/100
f 11/57/101 12/58/102 27/59/103 30/60/104
f 5/67/105 11/66/106 30/71/107 29/72/108
f 12/88/109 6/89/110 28/97/111 27/98/112
f 32/61/113 31/62/114 34/63/115 33/64/116
f 6/89/117 16/85/118 34/95/119 31/96/120
f 15/68/121 5/67/122 32/73/123 33/74/124
f 16/29/125 15/30/126 33/31/127 34/32/128
