# This file uses centimeters as units for non-parametric coordinates.

mtllib Week 2 tv screen.mtl
g default
v -100.529690 38.602326 -45.507158
v -100.529697 207.279565 -45.507158
v -239.265444 38.602320 -45.507152
v -239.265451 207.279559 -45.507152
v -100.783638 38.911090 -65.507158
v -100.783645 206.970801 -65.507158
v -239.011497 38.911084 -65.507152
v -239.011504 206.970795 -65.507152
v -239.785916 37.969522 -59.161011
v -239.785923 207.912357 -59.161011
v -100.009219 37.969528 -59.161017
v -100.009226 207.912363 -59.161017
v -239.785915 37.969522 -51.436307
v -100.009226 207.912363 -51.436313
v -239.785923 207.912357 -51.436307
v -100.009219 37.969528 -51.436313
v -101.552966 39.846442 -51.436313
v -101.552966 39.846442 -59.161017
v -238.242175 206.035443 -51.436307
v -238.242176 206.035443 -59.161011
v -238.242168 39.846436 -59.161011
v -101.552974 206.035449 -59.161017
v -101.552973 206.035449 -51.436313
v -238.242168 39.846436 -51.436307
v -241.590367 35.775640 -45.507152
v -98.204766 35.775646 -45.507158
v -98.204774 210.106245 -45.507158
v -241.590374 210.106239 -45.507152
v -239.265444 38.602320 -49.301085
v -100.529690 38.602326 -49.301091
v -100.529697 207.279565 -49.301091
v -239.265451 207.279559 -49.301085
v -241.642821 210.169993 -65.507152
v -241.642813 35.711885 -65.507152
v -98.152322 35.711892 -65.507158
v -98.152329 210.169999 -65.507158
v -239.011504 206.970795 -62.060071
v -239.011497 38.911084 -62.060071
v -100.783638 38.911090 -62.060077
v -100.783645 206.970801 -62.060077
vt 0.413652 0.499716
vt 0.653372 0.499716
vt 0.656079 0.502423
vt 0.410945 0.502423
vt 0.653372 0.259997
vt 0.656079 0.257290
vt 0.413652 0.259997
vt 0.410945 0.257290
vt 0.162909 0.499716
vt 0.402626 0.499716
vt 0.405333 0.502424
vt 0.160200 0.502424
vt 0.402626 0.259999
vt 0.405333 0.257291
vt 0.162909 0.259999
vt 0.160200 0.257291
vt 0.665770 0.261185
vt 0.665770 0.504491
vt 0.661692 0.508570
vt 0.661692 0.257108
vt 0.909076 0.504491
vt 0.913153 0.508570
vt 0.909076 0.261185
vt 0.913153 0.257108
vt 0.001823 0.506076
vt 0.245129 0.506076
vt 0.245129 0.749383
vt 0.001823 0.749383
vt 0.341865 0.249023
vt 0.584281 0.249023
vt 0.588894 0.253638
vt 0.337251 0.253638
vt 0.584281 0.006607
vt 0.588894 0.001993
vt 0.341865 0.006607
vt 0.337251 0.001993
vt 0.702710 0.754638
vt 0.460294 0.754638
vt 0.460294 0.512222
vt 0.702710 0.512222
vt 0.001823 0.250380
vt 0.001823 0.005247
vt 0.079606 0.001992
vt 0.079606 0.253636
vt 0.668492 0.005158
vt 0.668492 0.250291
vt 0.595821 0.253455
vt 0.595821 0.001993
vt 0.331221 0.001993
vt 0.331221 0.253639
vt 0.253438 0.250382
vt 0.253438 0.005250
vt 0.752746 0.253452
vt 0.752746 0.001992
vt 0.825417 0.005155
vt 0.825417 0.250289
vt 0.718181 0.998007
vt 0.718181 0.758290
vt 0.812860 0.758290
vt 0.812860 0.998007
vt 0.612276 0.758289
vt 0.612276 0.998008
vt 0.517597 0.998008
vt 0.517597 0.758289
vt 0.251654 0.749383
vt 0.251654 0.506077
vt 0.298155 0.506077
vt 0.298155 0.749383
vt 0.305152 0.749383
vt 0.305152 0.506074
vt 0.351653 0.506074
vt 0.351653 0.749383
vt 0.752199 0.512222
vt 0.752199 0.754639
vt 0.709949 0.754639
vt 0.709949 0.512222
vt 0.800346 0.512220
vt 0.800346 0.754636
vt 0.758096 0.754636
vt 0.758096 0.512220
vt 0.108085 0.500598
vt 0.108085 0.257291
vt 0.154586 0.257291
vt 0.154586 0.500598
vt 0.454397 0.506074
vt 0.454397 0.748485
vt 0.412147 0.748485
vt 0.412147 0.506074
vt 0.085813 0.005250
vt 0.163596 0.001992
vt 0.163596 0.253641
vt 0.085813 0.250383
vt 0.746955 0.250290
vt 0.674284 0.253455
vt 0.674284 0.001993
vt 0.746955 0.005157
vt 0.247409 0.253638
vt 0.169626 0.250382
vt 0.169626 0.005249
vt 0.247409 0.001993
vt 0.831209 0.001992
vt 0.903880 0.005158
vt 0.903880 0.250291
vt 0.831209 0.253457
vt 0.818474 0.758290
vt 0.913153 0.758290
vt 0.913153 0.998007
vt 0.818474 0.998007
vt 0.712568 0.998008
vt 0.617889 0.998008
vt 0.617889 0.758289
vt 0.712568 0.758289
vt 0.358649 0.749383
vt 0.358649 0.506074
vt 0.405150 0.506074
vt 0.405150 0.749383
vt 0.848494 0.512222
vt 0.848494 0.754638
vt 0.806244 0.754638
vt 0.806244 0.512222
vn -0.000000 1.000000 0.000000
vn -0.000000 1.000000 0.000000
vn -0.000000 1.000000 0.000000
vn -0.000000 1.000000 0.000000
vn -0.959758 -0.000000 0.280828
vn -0.959758 -0.000000 0.280828
vn -0.959758 -0.000000 0.280828
vn -0.959758 -0.000000 0.280828
vn 0.000000 -1.000000 -0.000000
vn 0.000000 -1.000000 -0.000000
vn 0.000000 -1.000000 -0.000000
vn 0.000000 -1.000000 -0.000000
vn 0.956677 0.000000 -0.291151
vn 0.956677 0.000000 -0.291151
vn 0.956677 0.000000 -0.291151
vn 0.956677 0.000000 -0.291151
vn 0.000000 -0.942157 0.335172
vn 0.000000 -0.942157 0.335172
vn 0.000000 -0.942157 0.335172
vn 0.000000 -0.942157 0.335172
vn -0.000000 0.937857 -0.347022
vn -0.000000 0.937857 -0.347022
vn -0.000000 0.937857 -0.347022
vn -0.000000 0.937857 -0.347022
vn -0.000000 0.942157 0.335172
vn -0.000000 0.942157 0.335172
vn -0.000000 0.942157 0.335172
vn -0.000000 0.942157 0.335172
vn -0.000000 0.000000 -1.000000
vn -0.000000 0.000000 -1.000000
vn -0.000000 0.000000 -1.000000
vn -0.000000 0.000000 -1.000000
vn 0.959758 0.000000 0.280828
vn 0.959758 0.000000 0.280828
vn 0.959758 0.000000 0.280828
vn 0.959758 0.000000 0.280828
vn -0.000000 0.000000 -1.000000
vn -0.000000 0.000000 -1.000000
vn -0.000000 0.000000 -1.000000
vn -0.000000 0.000000 -1.000000
vn -0.956677 -0.000000 -0.291151
vn -0.956677 -0.000000 -0.291151
vn -0.956677 -0.000000 -0.291151
vn -0.956677 -0.000000 -0.291151
vn 0.000000 -0.937857 -0.347022
vn 0.000000 -0.937857 -0.347022
vn 0.000000 -0.937857 -0.347022
vn 0.000000 -0.937857 -0.347022
vn 0.000000 0.000000 1.000000
vn 0.000000 0.000000 1.000000
vn 0.000000 0.000000 1.000000
vn 0.000000 0.000000 1.000000
vn -0.000000 1.000000 0.000000
vn -0.000000 1.000000 0.000000
vn -0.000000 1.000000 0.000000
vn -0.000000 1.000000 0.000000
vn 1.000000 0.000000 -0.000000
vn 1.000000 0.000000 -0.000000
vn 1.000000 0.000000 -0.000000
vn 1.000000 0.000000 -0.000000
vn 0.000000 -1.000000 -0.000000
vn 0.000000 -1.000000 -0.000000
vn 0.000000 -1.000000 -0.000000
vn 0.000000 -1.000000 -0.000000
vn -1.000000 -0.000000 0.000000
vn -1.000000 -0.000000 0.000000
vn -1.000000 -0.000000 0.000000
vn -1.000000 -0.000000 0.000000
vn -0.000000 -0.000000 -1.000000
vn -0.000000 -0.000000 -1.000000
vn -0.000000 -0.000000 -1.000000
vn -0.000000 -0.000000 -1.000000
vn 0.000000 0.000000 -1.000000
vn 0.000000 0.000000 -1.000000
vn 0.000000 0.000000 -1.000000
vn 0.000000 0.000000 -1.000000
vn 0.000000 -0.000000 1.000000
vn 0.000000 -0.000000 1.000000
vn 0.000000 -0.000000 1.000000
vn 0.000000 -0.000000 1.000000
vn -0.000000 -0.000000 1.000000
vn -0.000000 -0.000000 1.000000
vn -0.000000 -0.000000 1.000000
vn -0.000000 -0.000000 1.000000
vn 0.000000 -0.000000 1.000000
vn 0.000000 -0.000000 1.000000
vn 0.000000 -0.000000 1.000000
vn 0.000000 -0.000000 1.000000
vn 0.000000 -0.000000 1.000000
vn 0.000000 -0.000000 1.000000
vn 0.000000 -0.000000 1.000000
vn 0.000000 -0.000000 1.000000
vn 0.000000 -0.000000 1.000000
vn 0.000000 -0.000000 1.000000
vn 0.000000 -0.000000 1.000000
vn 0.000000 -0.000000 1.000000
vn 0.000000 -0.000000 1.000000
vn 0.000000 -0.000000 1.000000
vn 0.000000 -0.000000 1.000000
vn 0.000000 -0.000000 1.000000
vn 0.000000 -0.000000 1.000000
vn 0.000000 -0.000000 1.000000
vn 0.000000 -0.000000 1.000000
vn 0.000000 -0.000000 1.000000
vn 0.000000 -0.000000 1.000000
vn 0.000000 -0.000000 1.000000
vn 0.000000 -0.000000 1.000000
vn 0.000000 -0.000000 1.000000
vn 1.000000 0.000000 -0.000000
vn 1.000000 0.000000 -0.000000
vn 1.000000 0.000000 -0.000000
vn 1.000000 0.000000 -0.000000
vn -1.000000 -0.000000 0.000000
vn -1.000000 -0.000000 0.000000
vn -1.000000 -0.000000 0.000000
vn -1.000000 -0.000000 0.000000
vn 0.000000 -1.000000 -0.000000
vn 0.000000 -1.000000 -0.000000
vn 0.000000 -1.000000 -0.000000
vn 0.000000 -1.000000 -0.000000
vn -0.000000 0.000000 -1.000000
vn -0.000000 0.000000 -1.000000
vn -0.000000 0.000000 -1.000000
vn -0.000000 0.000000 -1.000000
vn -0.000000 0.000000 -1.000000
vn -0.000000 0.000000 -1.000000
vn -0.000000 0.000000 -1.000000
vn -0.000000 0.000000 -1.000000
vn -0.000000 0.000000 -1.000000
vn -0.000000 0.000000 -1.000000
vn -0.000000 0.000000 -1.000000
vn -0.000000 0.000000 -1.000000
vn -0.000000 0.000000 -1.000000
vn -0.000000 0.000000 -1.000000
vn -0.000000 0.000000 -1.000000
vn -0.000000 0.000000 -1.000000
vn -0.000000 0.000000 -1.000000
vn -0.000000 0.000000 -1.000000
vn -0.000000 0.000000 -1.000000
vn -0.000000 0.000000 -1.000000
vn 1.000000 0.000000 -0.000000
vn 1.000000 0.000000 -0.000000
vn 1.000000 0.000000 -0.000000
vn 1.000000 0.000000 -0.000000
vn -1.000000 -0.000000 0.000000
vn -1.000000 -0.000000 0.000000
vn -1.000000 -0.000000 0.000000
vn -1.000000 -0.000000 0.000000
vn -0.000000 1.000000 0.000000
vn -0.000000 1.000000 0.000000
vn -0.000000 1.000000 0.000000
vn -0.000000 1.000000 0.000000
s off
g CubeFBXASC046008 group1
usemtl initialShadingGroup
f 3/81/1 1/82/2 30/83/3 29/84/4
f 9/41/5 10/42/6 33/43/7 34/44/8
f 8/85/9 6/86/10 40/87/11 37/88/12
f 16/45/13 14/46/14 27/47/15 26/48/16
f 9/89/17 34/90/18 35/91/19 11/92/20
f 15/93/21 28/94/22 27/95/23 14/96/24
f 33/97/25 10/98/26 12/99/27 36/100/28
f 23/1/29 19/2/30 15/3/31 14/4/32
f 35/49/33 36/50/34 12/51/35 11/52/36
f 24/5/37 17/7/38 16/8/39 13/6/40
f 25/53/41 28/54/42 15/55/43 13/56/44
f 25/101/45 13/102/46 16/103/47 26/104/48
f 21/9/49 20/10/50 10/11/51 9/12/52
f 23/105/53 22/106/54 20/107/55 19/108/56
f 23/57/57 17/58/58 18/59/59 22/60/60
f 18/109/61 17/110/62 24/111/63 21/112/64
f 20/61/65 21/62/66 24/63/67 19/64/68
f 17/7/69 23/1/70 14/4/71 16/8/72
f 19/2/73 24/5/74 13/6/75 15/3/76
f 20/10/77 22/13/78 12/14/79 10/11/80
f 22/13/81 18/15/82 11/16/83 12/14/84
f 18/15/85 21/9/86 9/12/87 11/16/88
f 1/17/89 3/18/90 25/19/91 26/20/92
f 2/23/93 1/17/94 26/20/95 27/24/96
f 4/21/97 2/23/98 27/24/99 28/22/100
f 3/18/101 4/21/102 28/22/103 25/19/104
f 30/25/105 31/26/106 32/27/107 29/28/108
f 4/65/109 3/66/110 29/67/111 32/68/112
f 1/69/113 2/70/114 31/71/115 30/72/116
f 2/113/117 4/114/118 32/115/119 31/116/120
f 8/29/121 7/30/122 34/31/123 33/32/124
f 7/30/125 5/33/126 35/34/127 34/31/128
f 6/35/129 8/29/130 33/32/131 36/36/132
f 5/33/133 6/35/134 36/36/135 35/34/136
f 38/37/137 37/38/138 40/39/139 39/40/140
f 7/73/141 8/74/142 37/75/143 38/76/144
f 6/77/145 5/78/146 39/79/147 40/80/148
f 5/117/149 7/118/150 38/119/151 39/120/152
